<svg width="14" height="15" viewBox="0 0 14 15" fill="none" xmlns="http://www.w3.org/2000/svg">
<path d="M3.75 0C4.16563 0 4.5 0.334375 4.5 0.75V2H9.5V0.75C9.5 0.334375 9.83438 0 10.25 0C10.6656 0 11 0.334375 11 0.75V2H12C13.1031 2 14 2.89687 14 4V13C14 14.1031 13.1031 15 12 15H2C0.896875 15 0 14.1031 0 13V4C0 2.89687 0.896875 2 2 2H3V0.75C3 0.334375 3.33437 0 3.75 0ZM12 13.5C12.275 13.5 12.5 13.275 12.5 13V11H9.75V13.5H12ZM12.5 9.5V7H9.75V9.5H12.5ZM8.25 9.5V7H5.75V9.5H8.25ZM4.25 9.5V7H1.5V9.5H4.25ZM1.5 11V13C1.5 13.275 1.725 13.5 2 13.5H4.25V11H1.5ZM5.75 11V13.5H8.25V11H5.75ZM3.75 3.5H2C1.725 3.5 1.5 3.725 1.5 4V5.5H12.5V4C12.5 3.725 12.275 3.5 12 3.5H3.75Z" fill="#0C4580"/>
</svg>
