<svg width="20" height="20" viewBox="0 0 20 20" fill="none" xmlns="http://www.w3.org/2000/svg">
<path d="M2.85714 0C1.28125 0 0 1.28125 0 2.85714V17.1429C0 18.7188 1.28125 20 2.85714 20H17.1429C18.7188 20 20 18.7188 20 17.1429V2.85714C20 1.28125 18.7188 0 17.1429 0H2.85714ZM8.92857 13.9286V11.0714H6.07143C5.47768 11.0714 5 10.5938 5 10C5 9.40625 5.47768 8.92857 6.07143 8.92857H8.92857V6.07143C8.92857 5.47768 9.40625 5 10 5C10.5938 5 11.0714 5.47768 11.0714 6.07143V8.92857H13.9286C14.5223 8.92857 15 9.40625 15 10C15 10.5938 14.5223 11.0714 13.9286 11.0714H11.0714V13.9286C11.0714 14.5223 10.5938 15 10 15C9.40625 15 8.92857 14.5223 8.92857 13.9286Z" fill="#EF4822"/>
</svg>
